<svg version="1.2" baseProfile="tiny-ps" xmlns="http://www.w3.org/2000/svg" viewBox="0 0 47 47" width="47" height="47">
	<title>js</title>
	<style>
		tspan { white-space:pre }
		.shp0 { fill: #9e9e9e } 
	</style>
	<g id="js">
		<path id="icon" class="shp0" d="M17.36 15L20 15L20 26.06C20 26.84 19.88 27.54 19.63 28.15C19.38 28.76 19.04 29.28 18.59 29.7C18.15 30.11 17.62 30.44 17.01 30.65C16.4 30.87 15.73 30.98 15.01 30.98C14.28 30.98 13.61 30.89 13 30.7C12.39 30.52 11.86 30.23 11.42 29.84C10.97 29.45 10.63 28.96 10.38 28.36C10.13 27.77 10.01 27.08 10.01 26.28L12.66 26.28C12.66 26.73 12.71 27.12 12.83 27.44C12.95 27.76 13.11 28.02 13.31 28.22C13.52 28.42 13.77 28.56 14.05 28.66C14.34 28.75 14.66 28.8 15.01 28.8C15.35 28.8 15.67 28.74 15.96 28.62C16.24 28.5 16.49 28.32 16.7 28.09C16.91 27.86 17.07 27.58 17.18 27.24C17.3 26.9 17.36 26.51 17.36 26.06L17.36 15ZM32.21 26.77C32.21 26.45 32.16 26.17 32.07 25.93C31.97 25.68 31.8 25.46 31.54 25.25C31.29 25.04 30.94 24.85 30.5 24.66C30.05 24.47 29.48 24.27 28.78 24.06C28.02 23.84 27.31 23.59 26.66 23.31C26.02 23.02 25.46 22.69 24.99 22.31C24.53 21.94 24.16 21.5 23.9 21.01C23.63 20.52 23.5 19.96 23.5 19.32C23.5 18.7 23.64 18.12 23.91 17.59C24.19 17.07 24.58 16.61 25.08 16.23C25.58 15.84 26.17 15.54 26.87 15.33C27.57 15.11 28.34 15.01 29.19 15.01C30.09 15.01 30.91 15.13 31.63 15.39C32.35 15.64 32.96 15.98 33.45 16.42C33.95 16.85 34.33 17.36 34.59 17.93C34.86 18.5 34.99 19.11 34.99 19.76L32.21 19.76C32.21 19.38 32.15 19.04 32.03 18.72C31.91 18.4 31.72 18.13 31.47 17.9C31.22 17.67 30.91 17.49 30.52 17.36C30.14 17.23 29.69 17.17 29.17 17.17C28.68 17.17 28.25 17.22 27.89 17.33C27.53 17.43 27.23 17.58 26.99 17.77C26.75 17.97 26.57 18.19 26.46 18.46C26.35 18.72 26.29 19.01 26.29 19.31C26.29 19.89 26.57 20.37 27.13 20.75C27.69 21.14 28.55 21.5 29.71 21.82C30.61 22.08 31.4 22.36 32.06 22.68C32.72 22.99 33.27 23.34 33.71 23.74C34.14 24.13 34.47 24.58 34.68 25.07C34.9 25.57 35 26.13 35 26.75C35 27.4 34.87 27.99 34.6 28.51C34.33 29.04 33.95 29.48 33.45 29.85C32.96 30.21 32.35 30.5 31.65 30.69C30.94 30.89 30.16 30.98 29.29 30.98C28.52 30.98 27.76 30.88 27.01 30.68C26.26 30.48 25.58 30.17 24.99 29.76C24.39 29.35 23.91 28.84 23.55 28.23C23.18 27.62 23 26.9 23 26.07L25.79 26.07C25.79 26.56 25.88 26.98 26.06 27.34C26.24 27.69 26.49 27.98 26.8 28.2C27.11 28.43 27.48 28.59 27.91 28.69C28.34 28.8 28.8 28.85 29.29 28.85C30.26 28.85 30.99 28.66 31.48 28.28C31.97 27.9 32.21 27.39 32.21 26.77ZM23.5 47C10.54 47 0 36.46 0 23.5C0 10.54 10.54 0 23.5 0C36.46 0 47 10.54 47 23.5C47 36.46 36.46 47 23.5 47ZM23.5 1C11.09 1 1 11.09 1 23.5C1 35.91 11.09 46 23.5 46C35.91 46 46 35.91 46 23.5C46 11.09 35.91 1 23.5 1Z" />
	</g>
</svg>