<svg version="1.2" baseProfile="tiny-ps" xmlns="http://www.w3.org/2000/svg" viewBox="0 0 47 47" width="47" height="47">
	<title>personal info</title>
	<style>
		tspan { white-space:pre }
		.shp0 { fill: #9e9e9e } 
	</style>
	<g id="personal info">
		<path id="icon" class="shp0" d="M33.85 8.31L13.35 10.01C13.33 10.01 13.32 10.02 13.31 10.02L13.17 10.02C12.53 10.02 12 10.53 12 11.15L12 36.87C12 37.5 12.53 38 13.17 38L13.31 38C13.32 38 13.33 38.01 13.35 38.01L13.44 38L32.3 38C32.95 38 33.47 37.5 33.47 36.87L33.47 36.34L33.85 36.31C34.48 36.31 34.99 35.8 34.99 35.18L34.99 9.44C34.99 8.82 34.48 8.31 33.85 8.31ZM31.95 36.87C31.95 36.94 31.88 36.99 31.8 36.99L13.17 36.99C13.09 36.99 13.03 36.94 13.03 36.87L13.03 11.15C13.03 11.08 13.09 11.03 13.17 11.03L31.8 11.03C31.88 11.03 31.95 11.08 31.95 11.15L31.95 36.87ZM33.97 35.18C33.97 35.25 33.91 35.3 33.85 35.3L33.8 35.3L33.76 35.3L32.97 35.33L32.97 11.15C32.97 10.53 32.45 10.02 31.8 10.02L25.9 10.02L33.87 9.32C33.93 9.33 33.97 9.38 33.97 9.44L33.97 35.18ZM27.87 31L17.14 31C16.51 31 16 31.54 16 32.2L16 32.8C16 33.46 16.51 34 17.14 34L27.87 34C28.5 34 29.01 33.46 29.01 32.8L29.01 32.2C29.01 31.54 28.5 31 27.87 31ZM28.01 32.8C28.01 32.91 27.94 33 27.87 33L17.14 33C17.07 33 17 32.91 17 32.8L17 32.2C17 32.08 17.08 32 17.14 32L27.87 32C27.93 32 28.01 32.08 28.01 32.2L28.01 32.8ZM22.5 27C18.91 27 16 24.09 16 20.5C16 16.91 18.91 14 22.5 14C26.09 14 29 16.91 29 20.5C29 24.09 26.09 27 22.5 27ZM22.5 15C19.46 15 17 17.46 17 20.5C17 23.54 19.46 26 22.5 26C25.54 26 28 23.54 28 20.5C28 17.46 25.54 15 22.5 15ZM23.5 47C10.54 47 0 36.46 0 23.5C0 10.54 10.54 0 23.5 0C36.46 0 47 10.54 47 23.5C47 36.46 36.46 47 23.5 47ZM23.5 1C11.09 1 1 11.09 1 23.5C1 35.91 11.09 46 23.5 46C35.91 46 46 35.91 46 23.5C46 11.09 35.91 1 23.5 1Z" />
	</g>
</svg>