<svg version="1.2" baseProfile="tiny-ps" xmlns="http://www.w3.org/2000/svg" viewBox="0 0 47 47" width="47" height="47">
	<title>icon</title>
	<style>
		tspan { white-space:pre }
		.shp0 { fill: #9e9e9e } 
	</style>
	<path id="icon" class="shp0" d="M38.02 11.99L22.01 11.99L22.01 9.99L38.02 9.99L38.02 11.99ZM38.02 17.99L22.01 17.99L22.01 15.99L38.02 15.99L38.02 17.99ZM38.02 24L22.01 24L22.01 22L38.02 22L38.02 24ZM38.02 30L9.02 30L9.02 28L38.02 28L38.02 30ZM38.02 36L9.02 36L9.02 34L38.02 34L38.02 36ZM18 10.99C18.55 10.99 19 11.44 19 11.99L19 20.99C19 21.54 18.55 21.99 18 21.99L11 21.99C10.44 21.99 10 21.54 10 20.99L10 11.99C10 11.44 10.44 10.99 11 10.99L18 10.99M18 9.99L11 9.99C9.89 9.99 9 10.88 9 11.99L9 20.99C9 22.09 9.89 22.99 11 22.99L18 22.99C19.1 22.99 20 22.09 20 20.99L20 11.99C20 10.88 19.1 9.99 18 9.99L18 9.99ZM23.5 47C10.54 47 0 36.46 0 23.5C0 10.54 10.54 0 23.5 0C36.46 0 47 10.54 47 23.5C47 36.46 36.46 47 23.5 47ZM23.5 1C11.09 1 1 11.09 1 23.5C1 35.91 11.09 46 23.5 46C35.91 46 46 35.91 46 23.5C46 11.09 35.91 1 23.5 1Z" />
</svg>