<svg version="1.2" baseProfile="tiny-ps" xmlns="http://www.w3.org/2000/svg" viewBox="0 0 47 47" width="47" height="47">
	<title>experience</title>
	<style>
		tspan { white-space:pre }
		.shp0 { fill: #9e9e9e } 
	</style>
	<g id="experience">
		<g id="form">
			<path id="Shape 7" class="shp0" d="M14.5 16.99L13.5 16.99C12.12 16.99 11 15.87 11 14.49L11 13.49C11 12.11 12.12 10.99 13.5 10.99L14.5 10.99C15.88 10.99 17 12.11 17 13.49L17 14.49C17 15.87 15.88 16.99 14.5 16.99ZM13.5 11.99C12.67 11.99 12 12.66 12 13.49L12 14.49C12 15.32 12.67 15.99 13.5 15.99L14.5 15.99C15.33 15.99 16 15.32 16 14.49L16 13.49C16 12.66 15.33 11.99 14.5 11.99L13.5 11.99ZM36.01 14.99L20.01 14.99L20.01 12.99L36.01 12.99L36.01 14.99ZM14.5 27L13.5 27C12.12 27 11 25.87 11 24.5L11 23.5C11 22.12 12.12 21 13.5 21L14.5 21C15.88 21 17 22.12 17 23.5L17 24.5C17 25.87 15.88 27 14.5 27ZM13.5 22C12.67 22 12 22.67 12 23.5L12 24.5C12 25.32 12.67 26 13.5 26L14.5 26C15.33 26 16 25.32 16 24.5L16 23.5C16 22.67 15.33 22 14.5 22L13.5 22ZM36.01 25L20.01 25L20.01 23L36.01 23L36.01 25ZM14.5 37L13.5 37C12.12 37 11 35.88 11 34.5L11 33.5C11 32.12 12.12 31 13.5 31L14.5 31C15.88 31 17 32.12 17 33.5L17 34.5C17 35.88 15.88 37 14.5 37ZM13.5 32C12.67 32 12 32.67 12 33.5L12 34.5C12 35.33 12.67 36 13.5 36L14.5 36C15.33 36 16 35.33 16 34.5L16 33.5C16 32.67 15.33 32 14.5 32L13.5 32ZM36.01 35L20.01 35L20.01 33L36.01 33L36.01 35ZM23.5 47C10.54 47 0 36.46 0 23.5C0 10.54 10.54 0 23.5 0C36.46 0 47 10.54 47 23.5C47 36.46 36.46 47 23.5 47ZM23.5 1C11.09 1 1 11.09 1 23.5C1 35.91 11.09 46 23.5 46C35.91 46 46 35.91 46 23.5C46 11.09 35.91 1 23.5 1Z" />
		</g>
	</g>
</svg>